<svg width="16" height="16" viewBox="0 0 16 16" fill="none" xmlns="http://www.w3.org/2000/svg">
<g clip-path="url(#clip0_267_438)">
<path d="M14.5 7C14.5 6.60217 14.342 6.22064 14.0607 5.93934C13.7794 5.65803 13.3978 5.5 13 5.5H8.5V4.9375C8.92916 4.82603 9.30923 4.57535 9.58066 4.22474C9.8521 3.87414 9.99958 3.4434 10 3C10 1.25 8.3475 0.130622 8.2775 0.0837468C8.19533 0.0289273 8.09877 -0.000328064 8 -0.000328064C7.90123 -0.000328064 7.80467 0.0289273 7.7225 0.0837468C7.6525 0.130622 6 1.25 6 3C6.00042 3.4434 6.1479 3.87414 6.41934 4.22474C6.69077 4.57535 7.07084 4.82603 7.5 4.9375V5.5H3C2.60218 5.5 2.22064 5.65803 1.93934 5.93934C1.65804 6.22064 1.5 6.60217 1.5 7V8.45812C1.50051 9.00358 1.67574 9.53452 2 9.97312V12.5C2 12.8978 2.15804 13.2794 2.43934 13.5607C2.72064 13.842 3.10218 14 3.5 14H12.5C12.8978 14 13.2794 13.842 13.5607 13.5607C13.842 13.2794 14 12.8978 14 12.5V9.97312C14.3243 9.53452 14.4995 9.00358 14.5 8.45812V7ZM7 3C7 2.15187 7.625 1.47125 8 1.13812C8.375 1.47125 9 2.15187 9 3C9 3.26521 8.89464 3.51957 8.70711 3.7071C8.51957 3.89464 8.26522 4 8 4C7.73478 4 7.48043 3.89464 7.29289 3.7071C7.10536 3.51957 7 3.26521 7 3ZM2.5 7C2.5 6.86739 2.55268 6.74021 2.64645 6.64644C2.74021 6.55268 2.86739 6.5 3 6.5H13C13.1326 6.5 13.2598 6.55268 13.3536 6.64644C13.4473 6.74021 13.5 6.86739 13.5 7V8.45812C13.5 9.28625 12.8462 9.9775 12.0425 9.99937C11.842 10.0051 11.6424 9.97048 11.4556 9.89768C11.2687 9.82489 11.0983 9.71536 10.9545 9.57556C10.8107 9.43577 10.6964 9.26856 10.6183 9.08382C10.5402 8.89908 10.5 8.70056 10.5 8.5C10.5 8.36739 10.4473 8.24021 10.3536 8.14644C10.2598 8.05268 10.1326 8 10 8C9.86739 8 9.74021 8.05268 9.64645 8.14644C9.55268 8.24021 9.5 8.36739 9.5 8.5C9.5 8.89782 9.34196 9.27935 9.06066 9.56066C8.77936 9.84196 8.39782 10 8 10C7.60218 10 7.22064 9.84196 6.93934 9.56066C6.65804 9.27935 6.5 8.89782 6.5 8.5C6.5 8.36739 6.44732 8.24021 6.35355 8.14644C6.25979 8.05268 6.13261 8 6 8C5.86739 8 5.74021 8.05268 5.64645 8.14644C5.55268 8.24021 5.5 8.36739 5.5 8.5C5.50008 8.70061 5.45992 8.8992 5.38189 9.08401C5.30387 9.26883 5.18956 9.43611 5.04574 9.57597C4.90192 9.71583 4.73151 9.82542 4.54459 9.89825C4.35766 9.97108 4.15803 10.0057 3.9575 10C3.15375 9.9775 2.5 9.28625 2.5 8.45812V7ZM12.5 13H3.5C3.36739 13 3.24021 12.9473 3.14645 12.8536C3.05268 12.7598 3 12.6326 3 12.5V10.785C3.29268 10.9176 3.60881 10.9907 3.93 11C4.26416 11.0104 4.59697 10.9531 4.90844 10.8317C5.21991 10.7102 5.50361 10.527 5.7425 10.2931C5.83577 10.2022 5.92186 10.1042 6 10C6.23287 10.3105 6.53483 10.5625 6.88197 10.7361C7.2291 10.9096 7.61189 11 8 11C8.38811 11 8.7709 10.9096 9.11803 10.7361C9.46517 10.5625 9.76713 10.3105 10 10C10.0784 10.1038 10.1647 10.2014 10.2581 10.2919C10.7233 10.7475 11.3489 11.0018 12 11C12.0238 11 12.0475 11 12.0712 11C12.392 10.9905 12.7077 10.9175 13 10.785V12.5C13 12.6326 12.9473 12.7598 12.8536 12.8536C12.7598 12.9473 12.6326 13 12.5 13Z" fill="white" fill-opacity="0.35"/>
</g>
<defs>
<clipPath id="clip0_267_438">
<rect width="16" height="16" fill="white"/>
</clipPath>
</defs>
</svg>
