<svg width="16" height="17" viewBox="0 0 16 17" fill="none" xmlns="http://www.w3.org/2000/svg">
<path d="M13.5 4.99201H10.875V4.86701C10.875 4.10451 10.5721 3.37325 10.0329 2.83408C9.49377 2.29491 8.7625 1.99201 8 1.99201C7.2375 1.99201 6.50624 2.29491 5.96707 2.83408C5.4279 3.37325 5.125 4.10451 5.125 4.86701V4.99201H2.5C2.26794 4.99201 2.04538 5.0842 1.88128 5.24829C1.71719 5.41239 1.625 5.63495 1.625 5.86701V13.367C1.625 13.5991 1.71719 13.8216 1.88128 13.9857C2.04538 14.1498 2.26794 14.242 2.5 14.242H13.5C13.7321 14.242 13.9546 14.1498 14.1187 13.9857C14.2828 13.8216 14.375 13.5991 14.375 13.367V5.86701C14.375 5.63495 14.2828 5.41239 14.1187 5.24829C13.9546 5.0842 13.7321 4.99201 13.5 4.99201ZM5.875 4.86701C5.875 4.30343 6.09888 3.76292 6.4974 3.36441C6.89591 2.9659 7.43641 2.74201 8 2.74201C8.56359 2.74201 9.10409 2.9659 9.5026 3.36441C9.90112 3.76292 10.125 4.30343 10.125 4.86701V4.99201H5.875V4.86701ZM13.625 13.367C13.625 13.4002 13.6118 13.432 13.5884 13.4554C13.5649 13.4788 13.5332 13.492 13.5 13.492H2.5C2.46685 13.492 2.43505 13.4788 2.41161 13.4554C2.38817 13.432 2.375 13.4002 2.375 13.367V5.86701C2.375 5.83386 2.38817 5.80207 2.41161 5.77862C2.43505 5.75518 2.46685 5.74201 2.5 5.74201H13.5C13.5332 5.74201 13.5649 5.75518 13.5884 5.77862C13.6118 5.80207 13.625 5.83386 13.625 5.86701V13.367Z" fill="white" fill-opacity="0.35"/>
</svg>
