<svg width="16" height="16" viewBox="0 0 16 16" fill="none" xmlns="http://www.w3.org/2000/svg">
<path d="M4.66661 3.33333H15.3333V6H14.6666V6.66666H10.6666C10.4898 6.66666 10.3202 6.7369 10.1952 6.86193C10.0702 6.98695 9.99995 7.15652 9.99995 7.33333V8C9.99995 8.35362 9.85947 8.69276 9.60942 8.94281C9.35937 9.19285 9.02024 9.33333 8.66661 9.33333H6.41328C6.15995 9.33333 5.92661 9.48 5.81328 9.70666L4.17995 12.9667C4.06661 13.1933 3.83995 13.3333 3.58661 13.3333H1.33328C1.33328 13.3333 -0.666719 13.3333 1.99995 9.33333C1.99995 9.33333 3.99995 6.66666 1.33328 6.66666V3.33333H1.99995L2.33328 2.66666H4.33328L4.66661 3.33333ZM9.33328 8V7.33333C9.33328 7.15652 9.26304 6.98695 9.13802 6.86193C9.01299 6.7369 8.84343 6.66666 8.66661 6.66666H7.99995C7.99995 6.66666 7.33328 7.33333 7.99995 8C7.64633 8 7.30719 7.85952 7.05714 7.60947C6.80709 7.35942 6.66661 7.02029 6.66661 6.66666C6.4898 6.66666 6.32023 6.7369 6.19521 6.86193C6.07019 6.98695 5.99995 7.15652 5.99995 7.33333V8C5.99995 8.17681 6.07019 8.34638 6.19521 8.4714C6.32023 8.59643 6.4898 8.66666 6.66661 8.66666H8.66661C8.84343 8.66666 9.01299 8.59643 9.13802 8.4714C9.26304 8.34638 9.33328 8.17681 9.33328 8Z" fill="white" fill-opacity="0.35"/>
</svg>
