<?xml version="1.0" encoding="utf-8"?>
<!-- Generator: Adobe Illustrator 24.0.1, SVG Export Plug-In . SVG Version: 6.00 Build 0)  -->
<svg version="1.1" id="Camada_1" xmlns="http://www.w3.org/2000/svg" xmlns:xlink="http://www.w3.org/1999/xlink" x="0px" y="0px"
	 viewBox="0 0 18.2 173.8" style="enable-background:new 0 0 18.2 173.8;" xml:space="preserve">
<style type="text/css">
	.st0{display:none;}
	.st1{opacity:0.32;}
	.st2{fill:#6effc0;}
</style>
<title>vidabar</title>
<g id="Camada_2_1_">
	<g id="Camada_2-2">
		<g id="Camada_2-2_1_" class="st0">
			<path class="st1" d="M0,171.9L0,8.3c0-2.8,2.3-5.1,5.1-5.1h8c2.8,0,5.1,2.3,5.1,5.1v163.6c0,2.8-2.3,5.1-5.1,5.1h-8
				C2.3,177,0,174.7,0,171.9z"/>
		</g>
		<path class="st2" d="M0,168.7L0,5.1C0,2.3,2.3,0,5.1,0l8,0c2.8,0,5.1,2.3,5.1,5.1v163.6c0,2.8-2.3,5.1-5.1,5.1h-8
			C2.3,173.8,0,171.5,0,168.7z"/>
	</g>
</g>
</svg>
