<?xml version="1.0" encoding="utf-8"?>
<!-- Generator: Adobe Illustrator 24.0.1, SVG Export Plug-In . SVG Version: 6.00 Build 0)  -->
<svg version="1.1" id="Camada_1" xmlns="http://www.w3.org/2000/svg" xmlns:xlink="http://www.w3.org/1999/xlink" x="0px" y="0px"
	 viewBox="0 0 431 121" style="enable-background:new 0 0 431 121;" xml:space="preserve">
<style type="text/css">
	.st0{opacity:0.35;}
	.st1{fill:#FFFFFF;}
</style>
<g id="Camada_2_1_">
	<g id="Camada_7">
		<g class="st0">
			
				<image style="overflow:visible;enable-background:new    ;" width="119" height="117" xlink:href="11C65FB6.png"  transform="matrix(1 0 0 1 113 0)">
			</image>
		</g>
		<g class="st0">
			
				<image style="overflow:visible;enable-background:new    ;" width="136" height="120" xlink:href="11C65FBA.png"  transform="matrix(1 0 0 1 211 0)">
			</image>
		</g>
		<g class="st0">
			
				<image style="overflow:visible;enable-background:new    ;" width="113" height="121" xlink:href="11C65FBD.png"  transform="matrix(1 0 0 1 318 0)">
			</image>
		</g>
		<g class="st0">
			
				<image style="overflow:visible;enable-background:new    ;" width="133" height="115" xlink:href="11C65FBE.png"  transform="matrix(1 0 0 1 0 1)">
			</image>
		</g>
		<path class="st1" d="M175.8,31.8h-26.2v43.3h23.9c3.7-5.9,10.2-9.4,17.1-9.4h4.8V50.5L175.8,31.8z M159.2,59.6
			c-1.3,0.1-2.7-0.4-3.5-1.4h7.1C161.9,59.2,160.6,59.7,159.2,59.6z M155.6,56.8c0.4-1,1.9-1.7,3.7-1.7s3.3,0.7,3.7,1.7H155.6z
			 M155.6,50.3V36.5h16.9l13.9,13.8H155.6z"/>
		<path class="st1" d="M307.3,48l-18.9-14.9c-1.5-1.2-3.4-1.9-5.4-1.9c-4.4,0-8.1,3.2-8.7,7.5c-1.7,10.7-1.7,21.5,0,32.2l0.1,0.4
			c0.5,3.1,2.5,5.7,5.4,6.8c2.9,1.2,6.1,0.8,8.6-1.1l18.8-14.1c4.1-3.1,5-8.9,1.9-13C308.6,49.1,308,48.5,307.3,48z M302.2,59.8
			l-14.4,10.8c-2.4,1.8-5.7,1.3-7.5-1.1c-0.5-0.7-0.9-1.5-1-2.4l0-0.3c-1.2-8-1.2-16.2,0-24.2c0.4-2.6,2.7-4.5,5.3-4.5
			c1.2,0,2.4,0.4,3.3,1.2l14.5,11.5c2.5,2,2.9,5.6,0.9,8C302.9,59.2,302.6,59.5,302.2,59.8z"/>
		<path class="st1" d="M266.9,39l-17.3,2.3c-1.3,0.2-2.4,1.3-2.4,2.6c0,1.2,0.9,2.1,2.1,2.1c0.1,0,0.2,0,0.3,0l17.3-2.3
			c1.3-0.2,2.4-1.3,2.4-2.6c0-1.2-0.9-2.1-2.1-2.1C267.1,39,267,39,266.9,39z"/>
		<path class="st1" d="M266.9,53.9l-17.3,2.3c-1.3,0.2-2.4,1.3-2.4,2.6c0,1.2,0.9,2.1,2.1,2.2c0.1,0,0.2,0,0.3,0l17.3-2.3
			c1.3-0.2,2.3-1.3,2.4-2.6l0,0c0-1.2-0.9-2.1-2.1-2.2C267.2,53.8,267,53.8,266.9,53.9z"/>
		<path class="st1" d="M266.9,67.8L249.6,70c-1.3,0.2-2.4,1.3-2.4,2.6c0,1.2,0.9,2.1,2.1,2.2c0.1,0,0.2,0,0.3,0l17.3-2.3
			c1.3-0.2,2.3-1.3,2.4-2.6c0-1.2-0.9-2.1-2.1-2.1C267.1,67.8,267,67.8,266.9,67.8z"/>
		<path class="st1" d="M369.6,64.8l1.4-1.9c-1.1,0.1-2.2,0.2-3.2,0.4L369.6,64.8z"/>
		<path class="st1" d="M384.4,44.5l3.3-4.6l3.1,0.1v-2.7h-4.2l-5.4,7.3c0.5-0.5,1-1.1,1.4-1.8C383.4,43.1,384,43.7,384.4,44.5z"/>
		<path class="st1" d="M363.4,64.6v-0.4c-2.3,0.5-4.6,1.3-6.8,2.1c-0.7,0.3-1.2,0.5-1.7,0.7v2.5h0.1l-0.1,0.1
			c-0.1,0.2-0.2,0.3-0.3,0.4l0.3-0.2c3.3-1.6,6.8-2.8,10.4-3.5v-1.8H363.4z"/>
		<path class="st1" d="M386,64.1v0.5h-1.9v1.7c3.7,0.8,7.4,2.1,10.7,3.9v-2.9C392,65.9,389,64.8,386,64.1z"/>
		<path class="st1" d="M367.8,65.9c-0.9,0.1-1.7,0.3-2.5,0.5v13.2h8V66.7h2.8v12.9h8V66.3C378.8,65.1,373.3,65,367.8,65.9z"/>
		<path class="st1" d="M367.5,63.1l13.8-18.6c-3.6,3.6-9.5,3.6-13.2,0c-0.5-0.5-1-1.2-1.4-1.8c-1.5,0.9-2.5,2.5-2.5,4.3l-0.8,17.2
			c1.3-0.3,2.8-0.6,4.4-0.8L367.5,63.1z"/>
		<path class="st1" d="M372.8,62.8c4.4-0.2,8.9,0.2,13.2,1.2L385.2,47c0-0.9-0.3-1.7-0.8-2.5L371,62.9
			C371.6,62.9,372.2,62.9,372.8,62.8z"/>
		<circle class="st1" cx="374.7" cy="37.9" r="6.8"/>
		<path class="st1" d="M92.6,48.3v2.9c0,0.7-0.6,1.3-1.3,1.3h-1.3c-0.7,0-1.3-0.6-1.3-1.3v0v-1.5c0-0.7-0.6-1.3-1.3-1.3h-5.8
			c-0.7,0-1.3-0.6-1.3-1.3c0,0,0,0,0,0l0,0c0-0.7-0.6-1.3-1.3-1.3c0,0,0,0,0,0h-0.2c-0.4,0-0.7-0.1-0.9-0.4l-4.8-4.8
			c-0.3-0.3-0.6-0.4-0.9-0.4h-2.6c-0.7,0-1.3-0.6-1.3-1.3v-1.1c0-0.7,0.6-1.3,1.3-1.3h2.5c0.7,0,1.3-0.6,1.3-1.3v-0.9
			c0-0.7-0.6-1.3-1.3-1.3H53.5c-0.7,0-1.3,0.6-1.3,1.3v0.9c0,0.7,0.6,1.3,1.3,1.3h3.6c0.7,0,1.3,0.6,1.3,1.3v0v1.1
			c0,0.7-0.6,1.3-1.3,1.3c0,0,0,0,0,0h-2.9c-0.4,0-0.7,0.1-0.9,0.4l-2.5,2.5c-0.2,0.3-0.6,0.4-0.9,0.4h-4.6c-0.7,0-1.3,0.6-1.3,1.3
			v6.4c0,0.7-0.6,1.3-1.3,1.3h0h-0.7c-0.7,0-1.3-0.6-1.3-1.3v0v-2.5c0-0.7-0.6-1.3-1.3-1.3c0,0,0,0,0,0h-1c-0.7,0-1.3,0.6-1.3,1.3v0
			v18.1c0,0.7,0.6,1.3,1.3,1.3h1c0.7,0,1.3-0.6,1.3-1.3V64c0-0.7,0.6-1.3,1.3-1.3c0,0,0,0,0,0h0.7c0.7,0,1.3,0.6,1.3,1.3
			c0,0,0,0,0,0v6c0,0.7,0.6,1.3,1.3,1.3h4.2c0.7,0,1.3,0.6,1.3,1.3c0,0,0,0,0,0v0.9c0,0.7,0.6,1.3,1.3,1.3h16.3
			c0.4,0,0.7-0.1,0.9-0.4l4.4-4.4c0.3-0.3,0.6-0.4,1-0.4h4.1c0.7,0,1.3-0.6,1.3-1.3v-0.9c0-0.7,0.6-1.3,1.3-1.3l0,0h6.2
			c0.7,0,1.3-0.6,1.3-1.3c0,0,0,0,0,0v-1c0-0.7,0.6-1.3,1.3-1.3c0,0,0,0,0,0H91c0.7,0,1.3,0.6,1.3,1.3v0v2.6c0,0.7,0.6,1.3,1.3,1.3
			h1c0.7,0,1.3-0.6,1.3-1.3c0,0,0,0,0,0V48.3c0-0.7-0.6-1.3-1.3-1.3h-0.8C93.2,47,92.6,47.6,92.6,48.3z"/>
	</g>
</g>
</svg>
