<?xml version="1.0" encoding="utf-8"?>
<!-- Generator: Adobe Illustrator 24.0.1, SVG Export Plug-In . SVG Version: 6.00 Build 0)  -->
<svg version="1.1" id="Camada_1" xmlns="http://www.w3.org/2000/svg" xmlns:xlink="http://www.w3.org/1999/xlink" x="0px" y="0px"
	 viewBox="0 0 803.5 118.7" style="enable-background:new 0 0 803.5 118.7;" xml:space="preserve">
<style type="text/css">
	.st0{fill:#FFFFFF;}
	.st1{fill:none;stroke:#FFFFFF;stroke-width:20;stroke-linecap:round;}
</style>
<g id="Camada_1-2">
	<path class="st0" d="M102.9,99.5L102.9,99.5C90.5,87,88.7,67.5,98.7,53c6.9-9.9,13.2-20.2,19.4-30.5l10.6-17.8l10.6,17.8
		c6.2,10.4,12.5,20.6,19.4,30.5c10,14.5,8.2,34-4.2,46.5l0,0C140.2,113.7,117.1,113.7,102.9,99.5z"/>
</g>
<path class="st0" d="M371.2,38.1c0.1-17.6-14.1-32-31.7-32.2c-16.2-0.1-29.9,11.9-31.9,28v0.2c-2.4,12-8.2,23-16.8,31.7l0,0
	l20.6,20.7l0,0c8.6-8.6,19.6-14.4,31.5-16.8C358.9,68,371.2,54.3,371.2,38.1z"/>
<path class="st0" d="M294.1,92.4l9.7-9.7l-9.2-9.1l-9.6,9.6c-3.8-4.1-10.1-4.3-14.2-0.5s-4.3,10.1-0.5,14.2c1.2,1.2,2.6,2.2,4.2,2.7
	c1.7,0.5,3,1.9,3.5,3.5c1.7,5.3,7.3,8.2,12.6,6.5c5.3-1.7,8.2-7.3,6.5-12.6C296.6,95.2,295.5,93.6,294.1,92.4L294.1,92.4z"/>
<g id="layer1">
	<path id="path2160" class="st1" d="M664.4,57.4h92.2"/>
	<path id="path3152" class="st1" d="M710.5,14.6v85.7"/>
</g>
<g>
	<g transform="translate(0.000000,511.000000) scale(0.100000,-0.100000)">
		<path class="st0" d="M5062.2,5051.4c-23.1-4.7-42.2-13-115.3-49.4c-75.8-38.1-84.4-42-116.3-55c-52.5-21.2-111.6-39.7-172.3-53.9
			l-32.5-7.8v-34.8c0-91.6,13.4-194.1,37.1-284.9c44.3-170.6,134.4-326.3,253.2-437.2c53.3-49.6,110.1-91.6,155.4-114.9l18.5-9.5
			l18.5,10.9c54.8,32.1,100.4,68.3,158.3,125.4c132.1,130.5,221.5,297,261.4,487.6c14.8,70,23.9,156,23.9,224.2v33.1l-32.3,7.8
			c-60.9,14.2-120,32.7-172.5,53.9c-31.9,13-40.6,16.9-116.3,55c-39.1,19.6-78,38.1-86.5,41.2
			C5114.1,5054.1,5088.6,5056.7,5062.2,5051.4z M5129.1,5004.3c8-3.1,49.2-22.9,91.6-44.3c110.1-55,181.8-82.3,273.4-104.2
			c8.2-1.9,15.2-4.1,15.6-4.9c1.4-2.5-2.9-79.3-6-108.3c-12.8-116.7-42.4-223.7-89.9-324.2c-34.8-73.7-90.4-156-146.6-218
			c-41.4-45.5-103.1-98.8-151.9-131.3l-26.3-17.5l-14.8,8.8c-122.1,71.8-232.2,193.3-301.6,332.2c-52.7,105-84.2,215.9-98.4,345.8
			c-3.1,28.6-7.4,109.9-6,112.4c0.4,0.8,7.4,3.1,15.6,4.9c91.6,21.8,163.2,49.2,273.4,104.2c103.3,51.7,102.7,51.5,135.9,50.4
			C5110.6,5009.8,5117.6,5008.8,5129.1,5004.3z"/>
	</g>
</g>
<g>
	<path class="st0" d="M557.3,26.3c0-2.4-1.9-4.5-4.3-4.7C532.7,19.7,516.2,8.9,510.8,5c-1.1-0.8-2.7-0.8-3.8,0
		c-5.4,3.9-21.9,14.7-42.1,16.6c-2.4,0.2-4.3,2.2-4.3,4.7c-0.2,15.9,2.3,70,47.2,82.1c0.8,0.2,1.6,0.2,2.4,0
		C554.9,96.3,557.5,42.2,557.3,26.3z"/>
</g>
</svg>
