<?xml version="1.0" encoding="utf-8"?>
<!-- Generator: Adobe Illustrator 24.0.1, SVG Export Plug-In . SVG Version: 6.00 Build 0)  -->
<svg version="1.1" id="Camada_1" xmlns="http://www.w3.org/2000/svg" xmlns:xlink="http://www.w3.org/1999/xlink" x="0px" y="0px"
	 viewBox="0 0 329.5 6.2" style="enable-background:new 0 0 329.5 6.2;" xml:space="preserve">
<style type="text/css">
	.st0{display:none;}
	.st1{display:inline;opacity:0.32;enable-background:new    ;}
	.st2{fill:#FFFFFF;}
</style>
<title>vidabar</title>
<g id="Camada_2_1_">
	<g id="Camada_2-2">
		<g id="Camada_2-2_1_" class="st0">
			<path class="st1" d="M3.6,0l310.1,0c5.3,0,9.7,0.8,9.7,1.7v2.7c0,1-4.4,1.7-9.7,1.7L3.6,6.2c-5.3,0-9.7-0.8-9.7-1.7l0-2.7
				C-6.1,0.8-1.7,0,3.6,0z"/>
		</g>
		<path class="st2" d="M9.7,0l310.1,0c5.3,0,9.7,0.8,9.7,1.7v2.7c0,1-4.4,1.7-9.7,1.7L9.7,6.2C4.4,6.2,0,5.4,0,4.5l0-2.7
			C0,0.8,4.4,0,9.7,0z"/>
	</g>
</g>
</svg>
