<svg xmlns="http://www.w3.org/2000/svg" viewBox="0 0 20.03 30.59"><defs><style>.cls-1{fill:#fff;}</style></defs><title>mic</title><g id="Camada_2" data-name="Camada 2"><g id="Camada_1-2" data-name="Camada 1"><g id="Camada_2-2" data-name="Camada 2-2"><path class="cls-1" d="M10,20.37a5.72,5.72,0,0,0,5.72-5.72h0V5.49a5.73,5.73,0,0,0-11.45,0v9.16A5.73,5.73,0,0,0,10,20.37Z"/><path class="cls-1" d="M19,9.38h-.6a1.12,1.12,0,0,0-1.13,1.11v4.14a7.15,7.15,0,0,1-2.62,5.54l-2.35,1.94a3.53,3.53,0,0,1-4.5,0L5.42,20.17a7.11,7.11,0,0,1-2.61-5.54V10.51A1.14,1.14,0,0,0,1.68,9.38h-.6A1.08,1.08,0,0,0,0,10.44H0v.46C0,11.51.93,12,1.52,12v3.19A7.18,7.18,0,0,0,3.88,20.5l3.23,2.92a4.09,4.09,0,0,1,1.34,3v1.73a.36.36,0,0,1-.36.36H6.42v2.08h7.2V28.54H12a.37.37,0,0,1-.37-.36V26.45a4.1,4.1,0,0,1,1.35-3l3.22-2.92a7.14,7.14,0,0,0,2.36-5.32V12c.6,0,1.52-.48,1.52-1.08v-.46A1.07,1.07,0,0,0,19,9.38Z"/></g></g></g></svg>