<?xml version="1.0" encoding="utf-8"?>
<!-- Generator: Adobe Illustrator 24.0.1, SVG Export Plug-In . SVG Version: 6.00 Build 0)  -->
<svg version="1.1" id="Camada_1" xmlns="http://www.w3.org/2000/svg" xmlns:xlink="http://www.w3.org/1999/xlink" x="0px" y="0px"
	 viewBox="0 0 235.4 467" style="enable-background:new 0 0 235.4 467;" xml:space="preserve">
<style type="text/css">
	.st0{fill:#ff3b0f;}
</style>
<title>vidabar</title>
<path class="st0" d="M64.4,5.3L0.2,245c-1.2,4.5,2.2,9,6.9,9h49.2c4.8,0,8.2,4.6,6.9,9.1L6.5,457.9c-1.3,4.6,2.1,9.1,6.9,9.1h15
	c2.2,0,4.2-1,5.6-2.7l185.8-233.9c3.7-4.7,0.4-11.5-5.5-11.6l-72.9-0.7c-5.3-0.1-8.7-5.6-6.3-10.4l99.6-197.4
	C237,5.6,233.6,0,228.2,0H71.3C68.1,0,65.3,2.2,64.4,5.3z"/>
</svg>
