<?xml version="1.0" encoding="utf-8"?>
<!-- Generator: Adobe Illustrator 24.0.1, SVG Export Plug-In . SVG Version: 6.00 Build 0)  -->
<svg version="1.1" id="Camada_1" xmlns="http://www.w3.org/2000/svg" xmlns:xlink="http://www.w3.org/1999/xlink" x="0px" y="0px"
	 viewBox="0 0 99 16.5" style="enable-background:new 0 0 99 16.5;" xml:space="preserve">
<style type="text/css">
	.st0{opacity:0.15;}
	.st1{fill:#FFFFFF;}
	.st2{fill:#FF4C5F;}
</style>
<title>velobar</title>
<g id="Camada_2_1_">
	<g id="Camada_2_2_" class="st0">
		<g id="Camada_1-2_1_">
			<path d="M0.9,0.5H3c0.6,0,1,0.4,1,0.9v14.1c0,0.5-0.4,0.9-0.9,0.9H0.9C0.4,16.4,0,16,0,15.5V1.4C0,0.9,0.4,0.5,0.9,0.5z"/>
			<path d="M5.9,0.5H8c0.6,0,1,0.4,1,0.9v14.1c0,0.5-0.4,0.9-0.9,0.9H5.9C5.4,16.4,5,16,5,15.5V1.4C5,0.9,5.4,0.5,5.9,0.5z"/>
			<path d="M10.9,0.5H13c0.5,0,0.9,0.4,0.9,0.9v14.1c0,0.5-0.4,0.9-0.9,0.9h-2.1c-0.5,0-0.9-0.4-0.9-0.9V1.4
				C10,0.9,10.4,0.5,10.9,0.5z"/>
			<path d="M15.9,0.5H18c0.5,0,0.9,0.4,0.9,0.9v14.1c0,0.5-0.4,0.9-0.9,0.9h-2.1c-0.5,0-0.9-0.4-0.9-0.9V1.4
				C15,0.9,15.4,0.5,15.9,0.5z"/>
			<path d="M20.9,0.5H23c0.5,0,0.9,0.4,0.9,0.9v14.1c0,0.5-0.4,0.9-0.9,0.9h-2.1c-0.5,0-0.9-0.4-0.9-0.9V1.4
				C20,0.9,20.4,0.5,20.9,0.5z"/>
			<path d="M25.9,0.5H28c0.5,0,0.9,0.4,0.9,0.9v14.1c0,0.5-0.4,0.9-0.9,0.9h-2.1c-0.5,0-0.9-0.4-0.9-0.9V1.4
				C25,0.9,25.4,0.5,25.9,0.5z"/>
			<path d="M30.9,0.5H33c0.5,0,0.9,0.4,0.9,0.9v14.1c0,0.5-0.4,0.9-0.9,0.9h-2.1c-0.5,0-0.9-0.4-0.9-0.9V1.4
				C30,0.9,30.4,0.5,30.9,0.5z"/>
			<path d="M35.9,0.5H38c0.5,0,0.9,0.4,0.9,0.9v14.1c0,0.5-0.4,0.9-0.9,0.9h-2.1c-0.5,0-0.9-0.4-0.9-0.9V1.4
				C35,0.9,35.4,0.5,35.9,0.5z"/>
			<path d="M40.9,0.5H43c0.5,0,0.9,0.4,0.9,0.9v14.1c0,0.5-0.4,0.9-0.9,0.9h-2.1c-0.5,0-0.9-0.4-0.9-0.9V1.4
				C40,0.9,40.4,0.5,40.9,0.5z"/>
			<path d="M45.9,0.5H48c0.5,0,0.9,0.4,0.9,0.9v14.1c0,0.5-0.4,0.9-0.9,0.9h-2.1c-0.5,0-0.9-0.4-0.9-0.9V1.4
				C45,0.9,45.4,0.5,45.9,0.5z"/>
			<path d="M50.9,0.5H53c0.5,0,0.9,0.4,0.9,0.9v14.1c0,0.5-0.4,0.9-0.9,0.9h-2.1c-0.5,0-0.9-0.4-0.9-0.9V1.4
				C50,0.9,50.4,0.5,50.9,0.5z"/>
			<path d="M55.9,0.5H58c0.5,0,0.9,0.4,0.9,0.9v14.1c0,0.5-0.4,0.9-0.9,0.9h-2.1c-0.5,0-0.9-0.4-0.9-0.9V1.4
				C55,0.9,55.4,0.5,55.9,0.5z"/>
			<path d="M60.9,0.5H63c0.5,0,0.9,0.4,0.9,0.9v14.1c0,0.5-0.4,0.9-0.9,0.9h-2.1c-0.5,0-0.9-0.4-0.9-0.9V1.4
				C60,0.9,60.4,0.5,60.9,0.5z"/>
			<path d="M65.9,0.5H68c0.5,0,0.9,0.4,0.9,0.9v14.1c0,0.5-0.4,0.9-0.9,0.9h-2.1c-0.5,0-0.9-0.4-0.9-0.9V1.4
				C65,0.9,65.4,0.5,65.9,0.5z"/>
			<path d="M70.9,0.5H73c0.5,0,0.9,0.4,0.9,0.9v14.1c0,0.5-0.4,0.9-0.9,0.9h-2.1c-0.5,0-0.9-0.4-0.9-0.9V1.4
				C70,0.9,70.4,0.5,70.9,0.5z"/>
			<path d="M75.9,0.5H78c0.5,0,0.9,0.4,0.9,0.9v14.1c0,0.5-0.4,0.9-0.9,0.9h-2.1c-0.5,0-0.9-0.4-0.9-0.9V1.4
				C75,0.9,75.4,0.5,75.9,0.5z"/>
			<path d="M80.9,0.5H83c0.5,0,0.9,0.4,0.9,0.9v14.1c0,0.5-0.4,0.9-0.9,0.9h-2.1c-0.5,0-0.9-0.4-0.9-0.9V1.4
				C80,0.9,80.4,0.5,80.9,0.5z"/>
			<path d="M85.9,0.5H88c0.5,0,0.9,0.4,0.9,0.9v14.1c0,0.5-0.4,0.9-0.9,0.9h-2.1c-0.5,0-0.9-0.4-0.9-0.9V1.4
				C85,0.9,85.4,0.5,85.9,0.5z"/>
			<path d="M90.9,0.5H93c0.5,0,0.9,0.4,0.9,0.9v14.1c0,0.5-0.4,0.9-0.9,0.9h-2.1c-0.5,0-0.9-0.4-0.9-0.9V1.4
				C90,0.9,90.4,0.5,90.9,0.5z"/>
			<path d="M95.9,0.5H98c0.5,0,0.9,0.4,0.9,0.9v14.1c0,0.5-0.4,0.9-0.9,0.9h-2.1c-0.5,0-0.9-0.4-0.9-0.9V1.4
				C95,0.9,95.4,0.5,95.9,0.5z"/>
		</g>
	</g>
	<g id="Camada_1-2">
		<path class="st1" d="M0.9,0H3c0.6,0,1,0.4,1,0.9V15c0,0.6-0.4,1-0.9,1H0.9C0.4,16,0,15.6,0,15.1V0.9C0,0.4,0.4,0,0.9,0z"/>
		<path class="st1" d="M5.9,0H8c0.6,0,1,0.4,1,0.9V15c0,0.6-0.4,1-0.9,1H5.9C5.4,16,5,15.6,5,15.1V0.9C5,0.4,5.4,0,5.9,0z"/>
		<path class="st1" d="M10.9,0H13c0.6,0,1,0.4,1,0.9V15c0,0.5-0.4,0.9-0.9,0.9H11c-0.5,0-0.9-0.4-0.9-0.9V0.9C10,0.4,10.4,0,10.9,0z
			"/>
		<path class="st1" d="M15.9,0H18c0.6,0,1,0.4,1,0.9V15c0,0.5-0.4,0.9-0.9,0.9H16c-0.5,0-0.9-0.4-0.9-0.9V0.9C15,0.4,15.4,0,15.9,0z
			"/>
		<path class="st1" d="M20.9,0H23c0.6,0,1,0.4,1,0.9V15c0,0.5-0.4,0.9-0.9,0.9H21c-0.5,0-0.9-0.4-0.9-0.9V0.9C20,0.4,20.4,0,20.9,0z
			"/>
		<path class="st1" d="M25.9,0H28c0.6,0,1,0.4,1,0.9V15c0,0.5-0.4,0.9-0.9,0.9H26c-0.5,0-0.9-0.4-0.9-0.9V0.9C25,0.4,25.4,0,25.9,0z
			"/>
		<path class="st1" d="M30.9,0H33c0.6,0,1,0.4,1,0.9V15c0,0.5-0.4,0.9-0.9,0.9H31c-0.5,0-0.9-0.4-0.9-0.9V0.9C30,0.4,30.4,0,30.9,0z
			"/>
		<path class="st1" d="M35.9,0H38c0.6,0,1,0.4,1,0.9V15c0,0.5-0.4,0.9-0.9,0.9H36c-0.5,0-0.9-0.4-0.9-0.9V0.9C35,0.4,35.4,0,35.9,0z
			"/>
		<path class="st1" d="M40.9,0H43c0.6,0,1,0.4,1,0.9V15c0,0.5-0.4,0.9-0.9,0.9H41c-0.5,0-0.9-0.4-0.9-0.9V0.9C40,0.4,40.4,0,40.9,0z
			"/>
		<path class="st1" d="M45.9,0H48c0.6,0,1,0.4,1,0.9V15c0,0.5-0.4,0.9-0.9,0.9H46c-0.5,0-0.9-0.4-0.9-0.9V0.9C45,0.4,45.4,0,45.9,0z
			"/>
		<path class="st1" d="M50.9,0H53c0.6,0,1,0.4,1,0.9V15c0,0.5-0.4,0.9-0.9,0.9H51c-0.5,0-0.9-0.4-0.9-0.9V0.9C50,0.4,50.4,0,50.9,0z
			"/>
		<path class="st1" d="M55.9,0H58c0.6,0,1,0.4,1,0.9V15c0,0.5-0.4,0.9-0.9,0.9H56c-0.5,0-0.9-0.4-0.9-0.9V0.9C55,0.4,55.4,0,55.9,0z
			"/>
		<path class="st1" d="M60.9,0H63c0.6,0,1,0.4,1,0.9V15c0,0.5-0.4,0.9-0.9,0.9H61c-0.5,0-0.9-0.4-0.9-0.9V0.9C60,0.4,60.4,0,60.9,0z
			"/>
		<path class="st1" d="M65.9,0H68c0.6,0,1,0.4,1,0.9V15c0,0.5-0.4,0.9-0.9,0.9H66c-0.5,0-0.9-0.4-0.9-0.9V0.9C65,0.4,65.4,0,65.9,0z
			"/>
		<path class="st1" d="M70.9,0H73c0.6,0,1,0.4,1,0.9V15c0,0.5-0.4,0.9-0.9,0.9H71c-0.5,0-0.9-0.4-0.9-0.9V0.9C70,0.4,70.4,0,70.9,0z
			"/>
		<path class="st1" d="M75.9,0H78c0.6,0,1,0.4,1,0.9V15c0,0.5-0.4,0.9-0.9,0.9H76c-0.5,0-0.9-0.4-0.9-0.9V0.9C75,0.4,75.4,0,75.9,0z
			"/>
		<path class="st2" d="M80.9,0H83c0.6,0,1,0.4,1,0.9V15c0,0.5-0.4,0.9-0.9,0.9H81c-0.5,0-0.9-0.4-0.9-0.9V0.9C80,0.4,80.4,0,80.9,0z
			"/>
		<path class="st2" d="M85.9,0H88c0.6,0,1,0.4,1,0.9V15c0,0.5-0.4,0.9-0.9,0.9H86c-0.5,0-0.9-0.4-0.9-0.9V0.9C85,0.4,85.4,0,85.9,0z
			"/>
		<path class="st2" d="M90.9,0H93c0.6,0,1,0.4,1,0.9V15c0,0.5-0.4,0.9-0.9,0.9H91c-0.5,0-0.9-0.4-0.9-0.9V0.9C90,0.4,90.4,0,90.9,0z
			"/>
		<path class="st2" d="M95.9,0H98c0.6,0,1,0.4,1,0.9V15c0,0.5-0.4,0.9-0.9,0.9H96c-0.5,0-0.9-0.4-0.9-0.9V0.9C95,0.4,95.4,0,95.9,0z
			"/>
	</g>
</g>
</svg>
